Hanif_Shallow_2_5_grf.mot
version=1
nRows=42
nColumns=19
inDegrees=yes
endheader
time	right_ground_force_vx	right_ground_force_vy	right_ground_force_vz	right_ground_force_px	right_ground_force_py	right_ground_force_pz	right_ground_torque_x	right_ground_torque_y	right_ground_torque_z	left_ground_force_vx	left_ground_force_vy	left_ground_force_vz	left_ground_force_px	left_ground_force_py	left_ground_force_pz	left_ground_torque_x	left_ground_torque_y	left_ground_torque_z
1.325000	3.109160	263.867000	47.944100	0.225413	0.000000	-1.433910	-18.991200	1.546230	7.167360	-9.706100	253.715000	-47.478900	0.236062	0.000000	-0.968455	16.716600	-0.518463	9.685730
1.330000	2.927650	258.249000	47.319200	0.225480	0.000000	-1.432480	-18.958900	1.479900	7.032900	-9.857370	248.528000	-47.736300	0.236612	0.000000	-0.969449	16.626100	-0.415265	9.640500
1.335000	3.322900	252.297000	47.562700	0.226344	0.000000	-1.432630	-18.479600	1.313820	7.084420	-9.476390	245.639000	-47.208800	0.236846	0.000000	-0.969171	16.361200	-0.407333	9.583860
1.340000	3.062290	249.293000	47.199700	0.226959	0.000000	-1.433610	-18.018600	1.193660	7.145560	-9.400220	241.982000	-47.110900	0.238184	0.000000	-0.968735	16.013900	-0.342263	9.776980
1.345000	2.302420	241.909000	46.744300	0.226620	0.000000	-1.432400	-17.783300	1.107340	6.861380	-9.366670	239.783000	-46.148900	0.238373	0.000000	-0.968145	15.722400	-0.224615	9.702610
1.350000	2.111130	237.795000	46.209000	0.226622	0.000000	-1.432700	-17.412600	1.020250	6.737840	-8.690170	235.298000	-46.587300	0.238705	0.000000	-0.968241	15.444900	-0.169747	9.610180
1.355000	1.614670	233.259000	45.853100	0.226236	0.000000	-1.432070	-17.230300	0.883022	6.506410	-9.340560	231.260000	-45.231000	0.238672	0.000000	-0.968913	15.342400	-0.097362	9.424810
1.360000	1.888960	225.187000	44.762800	0.226457	0.000000	-1.433820	-16.239700	0.712568	6.307660	-8.817190	225.437000	-45.328400	0.237205	0.000000	-0.968453	14.847300	-0.079784	8.858670
1.365000	1.112120	221.098000	44.415400	0.226406	0.000000	-1.433060	-16.117900	0.679744	6.194060	-8.772340	221.010000	-44.948700	0.238200	0.000000	-0.968787	14.634200	-0.091362	8.927800
1.370000	1.465630	216.229000	43.494900	0.226205	0.000000	-1.433750	-15.611500	0.614445	5.997860	-7.834090	213.722000	-43.745600	0.238929	0.000000	-0.969688	14.338700	-0.120016	8.799960
1.375000	0.788215	210.371000	43.396700	0.226418	0.000000	-1.434180	-15.102200	0.513969	5.888330	-7.918700	207.809000	-43.982500	0.238765	0.000000	-0.969700	13.952300	-0.165946	8.563460
1.380000	0.795892	202.867000	42.225800	0.226483	0.000000	-1.433270	-14.748700	0.413408	5.679240	-7.204520	200.896000	-42.939800	0.238019	0.000000	-0.970568	13.655900	-0.161795	8.125450
1.385000	0.622236	198.052000	41.322500	0.225510	0.000000	-1.435770	-13.904500	0.360609	5.338280	-7.256630	195.783000	-41.679600	0.237528	0.000000	-0.969341	13.068200	-0.109165	7.806050
1.390000	0.071848	192.964000	40.779200	0.225284	0.000000	-1.434910	-13.718100	0.275446	5.153940	-7.156300	190.235000	-41.237500	0.238132	0.000000	-0.969062	12.648100	-0.105751	7.720250
1.395000	-0.702322	186.591000	40.143500	0.226479	0.000000	-1.434820	-13.286500	0.052741	5.191450	-7.040850	184.777000	-40.237900	0.237626	0.000000	-0.968411	12.166300	-0.123559	7.409370
1.400000	-1.338090	182.907000	39.324600	0.225028	0.000000	-1.435000	-12.994400	-0.016415	4.806320	-7.175150	178.950000	-39.074800	0.236829	0.000000	-0.970211	12.111000	-0.164030	7.045970
1.405000	-1.687790	175.157000	38.337700	0.225017	0.000000	-1.433560	-12.698300	0.025428	4.624220	-6.678780	175.268000	-37.645900	0.236977	0.000000	-0.969959	11.811400	-0.145521	6.907150
1.410000	-2.786680	172.125000	37.012500	0.224493	0.000000	-1.433830	-12.435600	-0.236274	4.403310	-7.294090	167.643000	-37.259500	0.237733	0.000000	-0.968742	11.106500	-0.074068	6.761090
1.415000	-3.460540	166.218000	36.659600	0.224501	0.000000	-1.435350	-11.760400	-0.307321	4.256760	-6.543540	161.464000	-35.661400	0.235950	0.000000	-0.970400	10.955200	-0.066528	6.199920
1.420000	-3.658850	162.153000	36.099600	0.224187	0.000000	-1.434920	-11.537900	-0.567813	4.047860	-7.252750	160.318000	-34.748200	0.235160	0.000000	-0.969314	10.709200	-0.019220	6.009950
1.425000	-3.822020	156.612000	35.294400	0.223957	0.000000	-1.435580	-11.040900	-0.600479	3.867840	-7.380670	157.386000	-33.830700	0.235661	0.000000	-0.969649	10.569300	0.001180	5.977430
1.430000	-4.629850	153.606000	34.847000	0.223680	0.000000	-1.433410	-11.166000	-0.653589	3.752520	-7.139820	157.358000	-33.588500	0.234353	0.000000	-0.970340	10.669100	0.036028	5.746980
1.435000	-4.533520	151.355000	34.304100	0.222060	0.000000	-1.436090	-10.588100	-0.819810	3.396360	-7.310230	154.494000	-33.662000	0.234442	0.000000	-0.969332	10.321700	0.086014	5.660550
1.440000	-5.049830	145.518000	34.032900	0.222289	0.000000	-1.435460	-10.271500	-0.923380	3.288200	-7.398610	154.491000	-33.310500	0.234627	0.000000	-0.969164	10.297800	0.053691	5.692310
1.445000	-4.883760	143.251000	32.773500	0.223070	0.000000	-1.436130	-10.017300	-0.845187	3.362470	-7.293410	153.748000	-32.871500	0.234772	0.000000	-0.969732	10.329100	0.171820	5.657780
1.450000	-5.587830	140.288000	32.413700	0.220684	0.000000	-1.436570	-9.746750	-0.888346	2.940990	-6.833030	150.476000	-32.611900	0.234559	0.000000	-0.968210	9.877610	0.139443	5.510870
1.455000	-5.787530	137.273000	31.591900	0.220330	0.000000	-1.436020	-9.609170	-0.979460	2.806430	-7.015250	146.772000	-32.150000	0.233004	0.000000	-0.968022	9.610780	0.106580	5.153080
1.460000	-6.427280	133.563000	30.880100	0.219720	0.000000	-1.435760	-9.377560	-1.147200	2.613830	-7.340520	147.913000	-31.522400	0.233048	0.000000	-0.967342	9.583610	0.173499	5.173920
1.465000	-6.878310	132.140000	30.361400	0.219873	0.000000	-1.438660	-8.891010	-1.204710	2.594240	-7.377160	147.164000	-31.971600	0.232131	0.000000	-0.966441	9.403360	0.156351	5.019340
1.470000	-7.584920	128.068000	29.906400	0.218722	0.000000	-1.436250	-8.923740	-1.239940	2.362360	-7.908960	147.195000	-31.589100	0.232209	0.000000	-0.966289	9.388100	0.172089	5.029810
1.475000	-7.780590	128.409000	29.904700	0.219983	0.000000	-1.435270	-9.068410	-1.380420	2.511800	-8.318120	147.890000	-32.574500	0.230314	0.000000	-0.964931	9.224710	0.334245	4.740480
1.480000	-7.973080	127.304000	29.016000	0.219150	0.000000	-1.438910	-8.526080	-1.335240	2.382060	-8.689690	147.495000	-32.396100	0.229460	0.000000	-0.964333	9.115240	0.318070	4.602030
1.485000	-8.226440	124.716000	29.193300	0.219093	0.000000	-1.437360	-8.535030	-1.517020	2.288770	-9.239420	150.029000	-33.010500	0.228521	0.000000	-0.964064	9.234680	0.314267	4.541190
1.490000	-8.529150	128.032000	28.754100	0.215536	0.000000	-1.438590	-8.610390	-1.319520	1.922270	-9.163200	149.348000	-32.929500	0.227901	0.000000	-0.964288	9.235950	0.132906	4.464020
1.495000	-8.621400	128.811000	28.935700	0.216783	0.000000	-1.436590	-8.926440	-1.291710	2.115230	-9.372590	152.631000	-33.472100	0.225723	0.000000	-0.961103	8.949980	0.077137	4.217510
1.500000	-8.980420	128.082000	28.588600	0.216557	0.000000	-1.438230	-8.661960	-1.333250	2.064510	-8.898270	155.523000	-32.872000	0.224019	0.000000	-0.962504	9.325480	0.075187	3.998360
1.505000	-8.915430	131.821000	28.500800	0.217930	0.000000	-1.440190	-8.656700	-1.367880	2.305100	-9.089520	157.372000	-33.224500	0.224226	0.000000	-0.962194	9.385220	0.136235	4.067330
1.510000	-8.835320	134.415000	28.762400	0.216630	0.000000	-1.438380	-9.076920	-1.261380	2.195630	-8.453300	160.322000	-32.620900	0.222931	0.000000	-0.964076	9.859120	-0.010734	3.935760
1.515000	-8.718250	141.060000	28.497600	0.217008	0.000000	-1.437690	-9.625050	-1.245440	2.365710	-8.273710	163.610000	-32.720500	0.222621	0.000000	-0.963831	10.012900	0.050855	3.939530
1.520000	-8.904530	143.691000	28.864100	0.217673	0.000000	-1.436740	-9.947800	-1.206000	2.523530	-8.190920	168.050000	-32.367900	0.221364	0.000000	-0.962139	9.998260	-0.054902	3.827280
1.525000	-8.845000	148.180000	28.773400	0.218916	0.000000	-1.436410	-10.301400	-1.332140	2.769540	-8.269140	174.635000	-31.906400	0.222865	0.000000	-0.962598	10.476000	-0.217842	4.256170
1.530000	-8.796990	158.136000	29.331900	0.218268	0.000000	-1.436810	-10.934200	-1.271470	2.865250	-8.012510	178.731000	-31.922400	0.221988	0.000000	-0.961853	10.574200	-0.062234	4.150690
